<?xml version="1.0" encoding="UTF-8"?>
<svg width="43px" height="33px" viewBox="0 0 43 33" version="1.1" xmlns="http://www.w3.org/2000/svg"
     xmlns:xlink="http://www.w3.org/1999/xlink">
    <!-- Generator: Sketch 59.1 (86144) - https://sketch.com -->
    <title>照片</title>
    <desc>Created with Sketch.</desc>
    <g id="页面-1" stroke="none" stroke-width="1" fill="none" fill-rule="evenodd">
        <g id="入户商谈" transform="translate(-167.000000, -983.000000)" fill-rule="nonzero">
            <g id="编组-5" transform="translate(122.000000, 963.000000)">
                <g id="编组-4" transform="translate(38.000000, 20.000000)">
                    <g id="照片" transform="translate(7.000000, 0.000000)">
                        <path d="M40.5402428,0 L2.45437477,0 C1.10339216,0 0,1.09750162 0,2.44662557 L0,30.5533744 C0,31.8971447 1.10339216,33 2.45437477,33 L40.5402428,33 C41.8912254,33 43,31.9024984 43,30.5533744 L43,2.44662557 C43,1.10285529 41.8966078,0 40.5402428,0 Z M16.5024409,4.8986048 C18.2248091,4.8986048 19.5757917,6.24237508 19.5757917,7.95554835 C19.5757917,9.66872161 18.2248091,11.1302726 16.5024409,11.1302726 C14.7800726,11.1302726 13.42909,9.78650227 13.42909,8.07332901 C13.5528852,6.24237508 14.9038678,4.8986048 16.5024409,4.8986048 Z M15.3936663,28.1174562 C14.4086869,28.1174562 13.5528852,27.2608696 13.5528852,26.2865023 C13.5528852,25.312135 14.4140693,24.4555483 15.3936663,24.4555483 C16.3786456,24.4555483 17.2344474,25.312135 17.2344474,26.2865023 C17.2344474,27.2608696 16.3786456,28.1174562 15.3936663,28.1174562 Z M21.540368,28.1174562 C20.5553887,28.1174562 19.6995869,27.2608696 19.6995869,26.2865023 C19.6995869,25.312135 20.5607711,24.4555483 21.540368,24.4555483 C22.5253474,24.4555483 23.3811491,25.312135 23.3811491,26.2865023 C23.3811491,27.2608696 22.519965,28.1174562 21.540368,28.1174562 Z M27.6816873,28.1174562 C26.696708,28.1174562 25.8409062,27.2608696 25.8409062,26.2865023 C25.8409062,25.312135 26.7020904,24.4555483 27.6816873,24.4555483 C28.6666667,24.4555483 29.5224684,25.312135 29.5224684,26.2865023 C29.5224684,27.2608696 28.6612843,28.1174562 27.6816873,28.1174562 Z M36.7725623,19.5622972 L7.4115659,19.5622972 C7.04556265,19.5622972 6.67417699,19.3160286 6.42658656,19.0751136 C6.0605833,18.5879299 6.17899612,17.7313433 6.67417699,17.3619403 L10.85092,14.3049968 C11.7121041,13.6946788 12.6917011,13.6946788 13.5528852,14.1818624 L18.1010139,16.9925373 L27.9292778,10.8840039 C28.9088747,10.2736859 30.1414445,10.3968202 30.8788334,11.1302726 L37.6337464,17.4850746 C37.8813368,17.7313433 38.0051321,18.0953926 38.0051321,18.3416613 C37.9997497,19.0751136 37.5099512,19.5622972 36.7725623,19.5622972 L36.7725623,19.5622972 Z"
                              id="形状" fill="#A4A4A4"></path>
                        <path d="M15.2411826,24.3717712 C14.2495484,24.3717712 13.3879646,25.2204797 13.3879646,26.1858856 C13.3879646,27.1512915 14.2549671,28 15.2411826,28 C16.2328168,28 17.0944006,27.1512915 17.0944006,26.1858856 C17.0944006,25.2204797 16.2328168,24.3717712 15.2411826,24.3717712 Z M27.6122255,24.3717712 C26.6205913,24.3717712 25.7590075,25.2204797 25.7590075,26.1858856 C25.7590075,27.1512915 26.62601,28 27.6122255,28 C28.6038597,28 29.4654435,27.1512915 29.4654435,26.1858856 C29.4654435,25.2204797 28.5984409,24.3717712 27.6122255,24.3717712 Z M21.4294134,24.3717712 C20.4377792,24.3717712 19.5761954,25.2204797 19.5761954,26.1858856 C19.5761954,27.1512915 20.443198,28 21.4294134,28 C22.4210476,28 23.2826314,27.1512915 23.2826314,26.1858856 C23.2826314,25.2204797 22.4156288,24.3717712 21.4294134,24.3717712 Z M16.3574484,11.1743542 C18.0914535,11.1743542 19.4515638,9.72094096 19.4515638,8.02882841 C19.4515638,6.33141144 18.0914535,5 16.3574484,5 C14.7480749,5 13.3879646,6.33141144 13.263333,8.14552583 C13.263333,9.8429428 14.6234432,11.1743542 16.3574484,11.1743542 Z M30.8255537,11.1743542 C30.0831828,10.4476476 28.8477041,10.3256458 27.8560699,10.9303506 L17.9668219,16.9880074 L13.3879646,14.2031827 C12.520962,13.7204797 11.5347466,13.7204797 10.667744,14.3251845 L6.46278155,17.3540129 C5.96967384,17.714714 5.84504222,18.5634225 6.21351831,19.0514299 C6.46278155,19.2954336 6.83125765,19.5341328 7.2051525,19.5341328 L36.7645213,19.5341328 C37.5068923,19.5341328 38,19.0514299 38,18.3247232 C38,18.0807196 37.8753684,17.7200185 37.6261051,17.4760148 L30.8255537,11.1743542 L30.8255537,11.1743542 Z"
                              id="形状" fill="#FFFFFF"></path>
                        <g id="a-link" transform="translate(28.000000, 17.000000)" fill="#C5DDFB">
                            <path d="M0.00859376,0.0666666667 L0.30937536,0.0666666667 L0.30937536,0.367448267 L0.00859376,0.367448267 L0.00859376,0.0666666667 Z M0.00859376,0.668229867 L0.30937536,0.668229867 L0.30937536,0.969011467 L0.00859376,0.969011467 L0.00859376,0.668229867 Z"
                                  id="a"></path>
                        </g>
                        <g id="a-link" transform="translate(28.000000, 17.000000)" fill="#2589FF">
                            <path d="M0.00859376,0.0666666667 L0.30937536,0.0666666667 L0.30937536,0.367448267 L0.00859376,0.367448267 L0.00859376,0.0666666667 Z M0.00859376,0.668229867 L0.30937536,0.668229867 L0.30937536,0.969011467 L0.00859376,0.969011467 L0.00859376,0.668229867 Z"
                                  id="a"></path>
                        </g>
                    </g>
                </g>
            </g>
        </g>
    </g>
</svg>