<?xml version="1.0" encoding="UTF-8"?>
<svg width="56px" height="56px" viewBox="0 0 56 56" version="1.1" xmlns="http://www.w3.org/2000/svg"
     xmlns:xlink="http://www.w3.org/1999/xlink">
    <!-- Generator: Sketch 59.1 (86144) - https://sketch.com -->
    <title>CAD</title>
    <desc>Created with Sketch.</desc>
    <defs>
        <linearGradient x1="31.6450362%" y1="7.80863761%" x2="54.1408867%" y2="76.2061567%" id="linearGradient-1">
            <stop stop-color="#FFFFFF" offset="0%"></stop>
            <stop stop-color="#C9E2FF" offset="100%"></stop>
        </linearGradient>
        <rect id="path-2" x="0" y="0" width="56" height="56" rx="8"></rect>
        <filter x="-35.7%" y="-28.6%" width="171.4%" height="171.4%" filterUnits="objectBoundingBox" id="filter-3">
            <feOffset dx="0" dy="4" in="SourceAlpha" result="shadowOffsetOuter1"></feOffset>
            <feGaussianBlur stdDeviation="6" in="shadowOffsetOuter1" result="shadowBlurOuter1"></feGaussianBlur>
            <feColorMatrix
                    values="0 0 0 0 0.0653553655   0 0 0 0 0.263335437   0 0 0 0 0.404749774  0 0 0 0.184331294 0"
                    type="matrix" in="shadowBlurOuter1"></feColorMatrix>
        </filter>
        <path d="M4.74013419,0 C4.30606999,0 3.8412902,0.166562721 3.52240102,0.495636724 C3.20351185,0.824905196 3,1.23925387 3,1.64981039 L3,31.3501896 C3,31.7645383 3.17296484,32.2008944 3.52240102,32.5043633 C3.8720395,32.8334373 4.30606999,33 4.74013419,33 L30.2596635,33 C30.693694,33 31.1585075,32.8334373 31.4773967,32.5043633 C31.8270352,32.1750948 32,31.7607461 32,31.3501896 L32,7.057994 L22.1385765,0 L4.74013419,0 Z"
              id="path-4"></path>
        <filter x="-27.6%" y="-12.1%" width="155.2%" height="148.5%" filterUnits="objectBoundingBox" id="filter-5">
            <feOffset dx="0" dy="4" in="SourceAlpha" result="shadowOffsetOuter1"></feOffset>
            <feGaussianBlur stdDeviation="2" in="shadowOffsetOuter1" result="shadowBlurOuter1"></feGaussianBlur>
            <feColorMatrix values="0 0 0 0 0.196078431   0 0 0 0 0.521568627   0 0 0 0 0.901960784  0 0 0 0.272618007 0"
                           type="matrix" in="shadowBlurOuter1"></feColorMatrix>
        </filter>
        <path d="M0,41 L56,21 L56,48 C56,52.418278 52.418278,56 48,56 L8,56 C3.581722,56 5.41083001e-16,52.418278 0,48 L0,41 L0,41 Z"
              id="path-6"></path>
        <filter x="-11.6%" y="-21.4%" width="123.2%" height="137.1%" filterUnits="objectBoundingBox" id="filter-7">
            <feOffset dx="0" dy="-1" in="SourceAlpha" result="shadowOffsetOuter1"></feOffset>
            <feGaussianBlur stdDeviation="2" in="shadowOffsetOuter1" result="shadowBlurOuter1"></feGaussianBlur>
            <feColorMatrix values="0 0 0 0 0.221900362   0 0 0 0 0.320402091   0 0 0 0 0.435518569  0 0 0 0.3457441 0"
                           type="matrix" in="shadowBlurOuter1"></feColorMatrix>
        </filter>
    </defs>
    <g id="页面-1" stroke="none" stroke-width="1" fill="none" fill-rule="evenodd">
        <g id="战略地图" transform="translate(-179.000000, -658.000000)">
            <g id="编组-6" transform="translate(179.000000, 658.000000)">
                <g id="CAD">
                    <g id="矩形">
                        <use fill="black" fill-opacity="1" filter="url(#filter-3)" xlink:href="#path-2"></use>
                        <use fill="url(#linearGradient-1)" fill-rule="evenodd" xlink:href="#path-2"></use>
                    </g>
                    <g id="cad" transform="translate(12.000000, 8.000000)">
                        <g id="编组"></g>
                        <path d="M10,25 L10,11 L25,11 L25,25 L10,25 L10,25 Z M23.5000523,12.3999817 L11.5000131,12.3999817 L11.5000131,20.7999329 L23.5000523,20.7999329 L23.5000523,12.3999817 Z M16.6666594,18 L19.5000174,14.4222825 L20.4999281,15.8222337 L21.5000022,15.5111504 L22.1666093,19.2444858 L12.5000871,19.2444858 L14.9999456,17.06675 L16.6666594,18 Z M13.8333014,15.6665854 C13.1667269,15.6665854 12.6666899,15.2000366 12.6666899,14.7333354 C12.6666899,14.2666341 13.1667269,13.8000854 13.8333014,13.8000854 C14.4999085,13.8000854 14.9999782,14.2666341 14.9999782,14.7333354 C14.9999456,15.2000366 14.4999085,15.6665854 13.8333014,15.6665854 Z"
                              id="形状" fill="#FFFFFF" fill-rule="nonzero"></path>
                        <path d="M10.1103647,13 C8.94752667,13 8,14.1227169 8,15.4998972 C8,16.8770774 8.94752667,18 10.1103647,18 C11.2732028,18 12.2205012,16.8770774 12.2205012,15.4998972 C12.2205012,14.1227169 11.277018,13 10.1103647,13 L10.1103647,13 Z M17.5001141,13 C16.3370804,13 15.3897494,14.1227169 15.3897494,15.4998972 C15.3897494,16.8770774 16.337113,18 17.5001141,18 C18.6629522,18 19.6102506,16.8770774 19.6102506,15.4998972 C19.6102506,14.1227169 18.6629522,13 17.5001141,13 L17.5001141,13 Z M24.8896679,13 C23.7268298,13 22.7795314,14.1227169 22.7795314,15.4998972 C22.7795314,16.8770774 23.7268298,18 24.8896679,18 C26.0525059,18 27,16.8770774 27,15.4998972 C27,14.1227169 26.0525059,13 24.8896679,13 L24.8896679,13 Z"
                              id="形状" fill="#FFFFFF" fill-rule="nonzero"></path>
                        <g id="路径" fill-rule="nonzero">
                            <use fill="black" fill-opacity="1" filter="url(#filter-5)" xlink:href="#path-4"></use>
                            <use fill="#3285E6" xlink:href="#path-4"></use>
                        </g>
                        <polygon id="路径" fill="#FFFFFF" fill-rule="nonzero" points="22 1 23 1 23 33 22 33"></polygon>
                        <path d="M22,5.10665243 L22,0 L32,7 L24.0046463,7 C22.8952358,7 22,6.15450705 22,5.10665243 Z"
                              id="路径" fill="#D7E9FF" fill-rule="nonzero"></path>
                        <path d="M24.0635106,23.1561981 L24.0635106,27.8437727 L24.8451979,27.0630149 L20.1550439,27.0630149 L20.9367312,27.8437727 L20.9367312,23.1561981 L20.1550439,23.9367814 L24.8416618,23.9367814 L24.0635106,23.1561981 L24.0635106,23.1561981 Z M20,23 L20,28 L25,28 L25,23 L20,23 Z"
                              id="形状" fill="#FFFFFF" fill-rule="nonzero"></path>
                        <polygon id="路径" fill="#FFFFFF" fill-rule="nonzero" points="3 25 32 25 32 26 3 26"></polygon>
                        <path d="M14.5848737,26.0304543 L9.32420197,26.0304543 L8.70754002,27.5170204 C8.46630087,28.098578 8.26075845,28.4900793 8.09094746,28.6911783 C7.92089363,28.895801 7.64031522,28.9962561 7.25295883,28.9962561 C6.92485415,28.9962561 6.63244621,28.8886279 6.37944691,28.6731511 C6.12644761,28.4576744 6,28.2099501 6,27.9371513 C6,27.7791539 6.0276138,27.6139834 6.08686552,27.4451948 C6.1462907,27.2765322 6.2410657,27.0395046 6.37559625,26.7414111 L9.68373642,19.2045388 L10.0238094,18.4254058 C10.1540383,18.1238202 10.300329,17.8688913 10.450505,17.6715047 C10.6008545,17.4703742 10.7984875,17.3087588 11.0395532,17.1867213 C11.2846777,17.0644952 11.5849604,17 11.9447377,17 C12.308331,17 12.6126725,17.061003 12.857797,17.1867213 C13.1027134,17.3087588 13.2964957,17.4703742 13.446637,17.6643316 C13.5967784,17.8617182 13.7233995,18.0735455 13.8260839,18.2927031 C13.9289419,18.5188766 14.0593789,18.8169072 14.2174991,19.1903813 L17.6008835,26.6804711 C17.8656429,27.2513004 18,27.6642267 18,27.9228051 C18,28.1921117 17.8736218,28.4398674 17.6246466,28.6625173 C17.375498,28.8851986 17.071087,29 16.7194621,29 C16.5139196,29 16.3360257,28.9677839 16.1897003,28.9030685 C16.0436178,28.8383846 15.916962,28.7486262 15.8181629,28.6337619 C15.7193638,28.5189605 15.6126205,28.3465854 15.494117,28.1095264 C15.379499,27.8761798 15.2845158,27.6679076 15.2015703,27.4883909 L14.5848737,26.0304543 L14.5848737,26.0304543 Z M9.50983192,24.8885754 L14.3795394,24.8885754 L11.9247906,18.8526469 L9.50983192,24.8885754 Z"
                              id="形状" fill="#FFFFFF" fill-rule="nonzero"></path>
                    </g>
                    <g id="矩形">
                        <use fill="black" fill-opacity="1" filter="url(#filter-7)" xlink:href="#path-6"></use>
                        <use fill="#3285E6" fill-rule="evenodd" xlink:href="#path-6"></use>
                    </g>
                    <text id="CAD图" font-family="PingFangSC-Regular, PingFang SC" font-size="11" font-weight="normal"
                          fill="#FFFFFF">
                        <tspan x="13" y="48">CAD图</tspan>
                    </text>
                </g>
            </g>
        </g>
    </g>
</svg>