<?xml version="1.0" encoding="UTF-8"?>
<svg width="24px" height="24px" viewBox="0 0 24 24" version="1.1" xmlns="http://www.w3.org/2000/svg"
     xmlns:xlink="http://www.w3.org/1999/xlink">
    <!-- Generator: Sketch 59.1 (86144) - https://sketch.com -->
    <title>首页</title>
    <desc>Created with Sketch.</desc>
    <defs>
        <path d="M11.3166591,0.191443904 C11.4497963,0.271326209 11.556306,0.377835943 11.6361883,0.510973105 L21.1155546,9.08500662 C21.3552015,9.45779068 21.3552015,9.93708449 21.1688095,10.3098685 C20.9824174,10.6826526 20.5830059,10.9222995 20.1303396,10.9222995 L19.1451245,10.9222995 L19.1451245,18.2448437 C19.1451245,19.4164507 18.1865369,20.3750383 17.0149299,20.3750383 L12.7545406,20.3750383 L12.7545406,16.913472 C12.7545406,15.7418649 11.7959529,14.7832773 10.6243459,14.7832773 C9.45273881,14.7832773 8.49415121,15.7418649 8.49415121,16.913472 L8.49415121,16.913472 L8.49415121,20.3750383 L4.50003622,20.3750383 C3.32842915,20.3750383 2.36984155,19.4164507 2.36984157,18.2448437 L2.36984157,10.9222995 L1.17160707,10.9222995 C0.532548667,10.9222995 4.24549285e-13,10.3897509 4.24549285e-13,9.75069245 C4.24549285e-13,9.51104555 0.0798823051,9.29802609 0.186392039,9.11163405 L9.69238571,0.510973105 C10.0651698,-0.0215755629 10.7841105,-0.154712725 11.3166591,0.191443904 Z"
              id="path-1"></path>
    </defs>
    <g id="页面-1" stroke="none" stroke-width="1" fill="none" fill-rule="evenodd">
        <g id="首页" transform="translate(-39.000000, -3064.000000)" fill-rule="nonzero">
            <g id="分组-30" transform="translate(0.000000, 3058.000000)">
                <g id="编组-23">
                    <g id="底部标签栏/4">
                        <g id="首页" transform="translate(39.000000, 6.000000)">
                            <g id="编组-4" transform="translate(1.000000, 1.500000)">
                                <g id="合并形状">
                                    <use fill="#486482" xlink:href="#path-1"></use>
                                    <use fill="#C7CFD7" xlink:href="#path-1"></use>
                                </g>
                            </g>
                        </g>
                    </g>
                </g>
            </g>
        </g>
    </g>
</svg>