<?xml version="1.0" encoding="UTF-8"?>
<svg width="24px" height="24px" viewBox="0 0 24 24" version="1.1" xmlns="http://www.w3.org/2000/svg"
     xmlns:xlink="http://www.w3.org/1999/xlink">
    <!-- Generator: Sketch 59.1 (86144) - https://sketch.com -->
    <title>战略地图</title>
    <desc>Created with Sketch.</desc>
    <g id="页面-1" stroke="none" stroke-width="1" fill="none" fill-rule="evenodd">
        <g id="首页" transform="translate(-131.000000, -3064.000000)" fill="#C7CFD7">
            <g id="分组-30" transform="translate(0.000000, 3058.000000)">
                <g id="编组-23">
                    <g id="底部标签栏/4">
                        <g id="战略地图" transform="translate(131.000000, 6.000000)">
                            <path d="M23,9.71652174 L23,19.24 C23,20.2120212 22.2120212,21 21.24,21 L15.002,20.9995217 L12.812,18.8355217 L22.8225062,8.94536838 C22.9361971,9.17824093 23,9.43993035 23,9.71652174 Z M21.24,7.95652174 C21.4536186,7.95652174 21.6583484,7.99457933 21.847779,8.06428416 L11.879,17.9135217 L9.78157339,15.8410067 C9.52447893,15.5869608 9.11087028,15.5869608 8.85377582,15.8410067 L8.85098413,15.8437653 C8.59629437,16.095435 8.59384615,16.5059205 8.84551587,16.7606102 C8.84732774,16.7624438 8.84915052,16.7642666 8.85098413,16.7660785 L11.3293418,19.2166539 C11.3513004,19.2478692 11.3763328,19.2775733 11.4044365,19.3053438 L11.4044365,19.3053438 C11.4361152,19.3366469 11.4669782,19.3619841 11.499373,19.3841141 L13.135,20.9995217 L2.76,21 C1.82544216,21 1.06101342,20.2715907 1.00347696,19.3515352 L6.16921759,14.24542 L6.16921759,14.24542 C6.42635557,13.985262 6.42390734,13.5747766 6.16921759,13.3231068 L6.16921759,13.3231068 C5.90933144,13.0663023 5.49572279,13.0663023 5.23862833,13.3203483 L5.23862833,13.3203483 L1,17.5085217 L1,9.71652174 C1,8.74450058 1.78797884,7.95652174 2.76,7.95652174 L21.24,7.95652174 Z"
                                  id="形状结合"></path>
                            <path d="M11.972355,1 C8.82819469,1 6.28,3.54786981 6.28,6.6969088 C6.28,8.27143509 6.91705209,9.69464327 7.94866547,10.7252423 L11.972355,14.7535622 L15.9960445,10.7252423 C17.064648,9.65374648 17.66471,8.20600023 17.66471,6.6969088 C17.6606136,3.54785623 15.1124053,1 11.972355,1 Z M11.972355,9.2284199 C11.2983128,9.2284199 10.6530543,8.95850111 10.1803891,8.48409838 C9.70772392,8.00969566 9.4405867,7.36761611 9.4405867,6.6969088 C9.4405867,6.0262015 9.70362756,5.38413554 10.1803891,4.90971922 C10.6530407,4.4353165 11.2983128,4.16950097 11.972355,4.16541129 C12.6463972,4.16541129 13.2916557,4.4353165 13.7643209,4.90971922 C14.2369861,5.38412195 14.5041697,6.0262015 14.5041697,6.6969088 C14.5082196,7.36761611 14.2410824,8.00969566 13.7643209,8.48409838 C13.2875593,8.95850111 12.6422872,9.22431664 11.972355,9.2284199 L11.972355,9.2284199 Z"
                                  id="形状" stroke="#FFFFFF" stroke-width="0.88" fill-rule="nonzero"></path>
                        </g>
                    </g>
                </g>
            </g>
        </g>
    </g>
</svg>