<?xml version="1.0" encoding="UTF-8"?>
<svg width="24px" height="24px" viewBox="0 0 24 24" version="1.1" xmlns="http://www.w3.org/2000/svg"
     xmlns:xlink="http://www.w3.org/1999/xlink">
    <!-- Generator: Sketch 59.1 (86144) - https://sketch.com -->
    <title>业务管理</title>
    <desc>Created with Sketch.</desc>
    <g id="页面-1" stroke="none" stroke-width="1" fill="none" fill-rule="evenodd">
        <g id="首页" transform="translate(-222.000000, -3064.000000)" fill-rule="nonzero">
            <g id="分组-30" transform="translate(0.000000, 3058.000000)">
                <g id="编组-23">
                    <g id="底部标签栏/4">
                        <g id="业务管理" transform="translate(222.000000, 6.000000)">
                            <g id="编组" transform="translate(1.000000, 3.000000)">
                                <path d="M21.65625,9.7826087 L19.25,9.7826087 L19.25,0.407608696 C19.25,0.182492629 19.0960979,0 18.90625,0 L7.5625,0 C7.37265212,0 7.21875,0.182492629 7.21875,0.407608696 L7.21875,2.85326087 L3.09375,2.85326087 C2.90390212,2.85326087 2.75,3.0357535 2.75,3.26086957 L2.75,9.7826087 L0.34375,9.7826087 C0.153902117,9.7826087 0,9.96510132 0,10.1902174 L0,19.1576087 C0,19.3827248 0.153902117,19.5652174 0.34375,19.5652174 L21.65625,19.5652174 C21.8460979,19.5652174 22,19.3827248 22,19.1576087 L22,10.1902174 C22,9.96510132 21.8460979,9.7826087 21.65625,9.7826087 Z M7.21875,9.7826087 L4.8125,9.7826087 L4.8125,5.29891304 L7.21875,5.29891304 L7.21875,9.7826087 Z M17.1875,9.7826087 L9.28125,9.7826087 L9.28125,2.44565217 L17.1875,2.44565217 L17.1875,9.7826087 Z"
                                      id="形状" fill="#C7CFD7"></path>
                                <polygon id="路径" fill="#C7CFD7"
                                         points="10.65625 4.07608696 15.8125 4.07608696 15.8125 5.70652174 10.65625 5.70652174"></polygon>
                                <polygon id="路径" fill="#C7CFD7"
                                         points="10.65625 6.52173913 14.4375 6.52173913 14.4375 8.15217391 10.65625 8.15217391"></polygon>
                                <polygon id="路径" fill="#FFFFFF"
                                         points="16.5 13.451087 17.875 13.451087 17.875 15.8967391 16.5 15.8967391"></polygon>
                                <polygon id="路径" fill="#FFFFFF"
                                         points="14.09375 13.451087 15.46875 13.451087 15.46875 15.8967391 14.09375 15.8967391"></polygon>
                                <polygon id="路径" fill="#FFFFFF"
                                         points="4.125 13.451087 6.1875 13.451087 6.1875 15.8967391 4.125 15.8967391"></polygon>
                                <polygon id="路径" fill="#FFFFFF"
                                         points="7.5625 13.451087 9.625 13.451087 9.625 15.8967391 7.5625 15.8967391"></polygon>
                            </g>
                        </g>
                    </g>
                </g>
            </g>
        </g>
    </g>
</svg>