<?xml version="1.0" encoding="UTF-8"?>
<svg width="56px" height="56px" viewBox="0 0 56 56" version="1.1" xmlns="http://www.w3.org/2000/svg"
     xmlns:xlink="http://www.w3.org/1999/xlink">
    <!-- Generator: Sketch 59.1 (86144) - https://sketch.com -->
    <title>3D</title>
    <desc>Created with Sketch.</desc>
    <defs>
        <rect id="path-1" x="0" y="0" width="56" height="56" rx="8"></rect>
        <filter x="-35.7%" y="-28.6%" width="171.4%" height="171.4%" filterUnits="objectBoundingBox" id="filter-2">
            <feOffset dx="0" dy="4" in="SourceAlpha" result="shadowOffsetOuter1"></feOffset>
            <feGaussianBlur stdDeviation="6" in="shadowOffsetOuter1" result="shadowBlurOuter1"></feGaussianBlur>
            <feColorMatrix
                    values="0 0 0 0 0.0653553655   0 0 0 0 0.263335437   0 0 0 0 0.404749774  0 0 0 0.184331294 0"
                    type="matrix" in="shadowBlurOuter1"></feColorMatrix>
        </filter>
        <path d="M0,41 L56,21 L56,48 C56,52.418278 52.418278,56 48,56 L8,56 C3.581722,56 5.41083001e-16,52.418278 0,48 L0,41 L0,41 Z"
              id="path-3"></path>
        <filter x="-6.2%" y="-12.9%" width="112.5%" height="120.0%" filterUnits="objectBoundingBox" id="filter-4">
            <feOffset dx="0" dy="-1" in="SourceAlpha" result="shadowOffsetOuter1"></feOffset>
            <feGaussianBlur stdDeviation="1" in="shadowOffsetOuter1" result="shadowBlurOuter1"></feGaussianBlur>
            <feColorMatrix values="0 0 0 0 0.878388253   0 0 0 0 0.914821093   0 0 0 0 0.95739923  0 0 0 0.296000874 0"
                           type="matrix" in="shadowBlurOuter1"></feColorMatrix>
        </filter>
    </defs>
    <g id="页面-1" stroke="none" stroke-width="1" fill="none" fill-rule="evenodd">
        <g id="战略地图" transform="translate(-309.000000, -658.000000)">
            <g id="3D" transform="translate(309.000000, 658.000000)">
                <g>
                    <g id="矩形">
                        <use fill="black" fill-opacity="1" filter="url(#filter-2)" xlink:href="#path-1"></use>
                        <use fill="#FFFFFF" fill-rule="evenodd" xlink:href="#path-1"></use>
                    </g>
                    <path d="M33.1894666,19.3548628 L32.6451851,19.3548628 L32.6451851,29.677443 L33.1894666,29.677443 C35.8921154,29.677443 37.8064752,28.4364793 37.8064752,24.4503478 C37.8064752,20.4642295 35.8920989,19.3548628 33.1894666,19.3548628 L33.1894666,19.3548628 Z M37.4222626,8.00002456 L18.577837,8.00002456 L18.5778373,8.00002456 C14.9548649,7.99021736 12.0098931,10.9192432 12.0000246,14.5422059 C12.0000246,14.5540738 12.0000246,14.5659418 12.0000246,14.5778097 L12.0000246,33.4222172 L12.0000246,33.4221855 C11.9902,37.0451545 14.9192149,39.9901234 18.5421811,40.0000246 C18.5540491,40.0000246 18.5659172,40.0000246 18.5777852,40.0000246 L37.4222108,40.0000246 L37.4222107,40.0000246 C41.0451831,40.0098303 43.9901549,37.0808046 44.0000246,33.4578419 C44.0000246,33.445974 44.0000246,33.434106 44.0000246,33.4222381 L44.0000246,14.5778306 L44.0000246,14.577863 C44.0098482,10.954894 41.0808331,8.00992501 37.4578669,8.00002456 C37.4460096,8.00002456 37.4341522,8.00002456 37.422295,8.00002456 L37.4222626,8.00002456 Z M20.5599745,31.730599 L20.5599743,31.730599 C18.4946818,31.8459811 16.4850943,31.0776928 15.0967987,29.6419772 L16.8821474,27.4029745 L16.8821475,27.4029746 C17.7510114,28.2630452 18.9399583,28.7775333 20.2028908,28.8399473 C21.6847301,28.8399473 22.6488168,28.2551326 22.6488168,27.1690499 C22.6488168,26.0829672 21.8811163,25.0971375 18.5425223,25.0971375 L18.5425223,22.5907914 C21.2562531,22.5907914 22.1132322,21.8054707 22.1132322,20.619132 C22.1132322,19.4327963 21.4705057,18.9816533 20.2921758,18.9816533 L20.2921759,18.9816533 C19.2109109,19.0355402 18.1937711,19.4785773 17.4534712,20.218117 L15.5252948,18.0960766 L15.5252949,18.0960764 C16.8809144,16.9421842 18.6385706,16.2889433 20.4707116,16.2580887 C23.7735979,16.2580887 25.9338872,17.6950614 25.9338872,20.3684831 L25.9338872,20.3684867 C25.9678607,21.8939874 24.9195876,23.2565832 23.3629811,23.7102933 L23.3629811,23.8105472 L23.3629813,23.8105472 C25.1373302,24.1796298 26.4126874,25.6354059 26.451637,27.3361299 C26.451637,30.1599473 23.7200523,31.7306034 20.5599875,31.7306034 L20.5599745,31.730599 Z M33.60757,31.7419591 L28.516153,31.7419591 L28.516153,16.2580887 L33.3804323,16.2580887 C38.528642,16.2580887 41.9355073,18.5320648 41.9355073,23.9132443 C41.9355073,29.2944025 38.5286087,31.7419591 33.6075367,31.7419591 L33.60757,31.7419591 Z"
                          id="形状" fill="#B1B1B1" fill-rule="nonzero"></path>
                    <g id="矩形">
                        <use fill="black" fill-opacity="1" filter="url(#filter-4)" xlink:href="#path-3"></use>
                        <use fill="#FFFFFF" fill-rule="evenodd" xlink:href="#path-3"></use>
                    </g>
                    <text id="三维图" font-family="PingFangSC-Regular, PingFang SC" font-size="11" font-weight="normal"
                          fill="#8C8C8C">
                        <tspan x="13" y="48">三维图</tspan>
                    </text>
                </g>
            </g>
        </g>
    </g>
</svg>