<?xml version="1.0" encoding="UTF-8"?>
<svg width="24px" height="24px" viewBox="0 0 24 24" version="1.1" xmlns="http://www.w3.org/2000/svg"
     xmlns:xlink="http://www.w3.org/1999/xlink">
    <!-- Generator: Sketch 59.1 (86144) - https://sketch.com -->
    <title>我的</title>
    <desc>Created with Sketch.</desc>
    <g id="页面-1" stroke="none" stroke-width="1" fill="none" fill-rule="evenodd">
        <g id="首页" transform="translate(-312.000000, -3064.000000)" fill="#C7CFD7" fill-rule="nonzero">
            <g id="分组-30" transform="translate(0.000000, 3058.000000)">
                <g id="编组-23">
                    <g id="底部标签栏/4">
                        <g id="我的" transform="translate(312.000000, 6.000000)">
                            <path d="M12,1 C14.7044793,1 17.1236776,2.68533626 18.0655273,5.22555403 C19.0073769,7.76577179 18.2731766,10.6249631 16.2247059,12.3942525 C19.4941176,13.7934992 22,16.5884561 22,19.1335054 C22,22.2078401 18.9682353,23 12,23 C5.03176471,23 2,22.2066613 2,19.1335054 C2,16.5884561 4.50588235,13.7934992 7.77529412,12.3942525 C5.72682336,10.6249631 4.99262306,7.76577179 5.93447273,5.22555403 C6.87632239,2.68533626 9.29552068,1 12,1 Z M15.9952546,14.5446626 C14.8906493,15.5358719 13.4473985,16.0845981 11.950545,16.0824674 C10.4958843,16.0847266 9.09029222,15.5664703 7.99710555,14.6247934 C7.74772295,14.4100264 7.36812675,14.4342953 7.14925372,14.6789996 C6.93038069,14.9237039 6.95511358,15.296179 7.20449619,15.5109461 L7.20569711,15.5121245 C8.51803084,16.6417119 10.2048543,17.2633992 11.950545,17.2608696 C13.7462942,17.2632194 15.4777635,16.6052348 16.8034759,15.4166745 C16.9622239,15.2750081 17.03189,15.0610006 16.9862317,14.8552667 C16.9405734,14.6495328 16.7865273,14.4833282 16.582121,14.4192608 C16.3777148,14.3551933 16.1540026,14.4029962 15.9952546,14.5446626 Z"
                                  id="合并形状"></path>
                        </g>
                    </g>
                </g>
            </g>
        </g>
    </g>
</svg>