<?xml version="1.0" encoding="UTF-8"?>
<svg width="56px" height="56px" viewBox="0 0 56 56" version="1.1" xmlns="http://www.w3.org/2000/svg"
     xmlns:xlink="http://www.w3.org/1999/xlink">
    <!-- Generator: Sketch 59.1 (86144) - https://sketch.com -->
    <title>2D</title>
    <desc>Created with Sketch.</desc>
    <defs>
        <rect id="path-1" x="0" y="0" width="56" height="56" rx="8"></rect>
        <filter x="-35.7%" y="-28.6%" width="171.4%" height="171.4%" filterUnits="objectBoundingBox" id="filter-2">
            <feOffset dx="0" dy="4" in="SourceAlpha" result="shadowOffsetOuter1"></feOffset>
            <feGaussianBlur stdDeviation="6" in="shadowOffsetOuter1" result="shadowBlurOuter1"></feGaussianBlur>
            <feColorMatrix
                    values="0 0 0 0 0.0653553655   0 0 0 0 0.263335437   0 0 0 0 0.404749774  0 0 0 0.184331294 0"
                    type="matrix" in="shadowBlurOuter1"></feColorMatrix>
        </filter>
        <path d="M0,37 L56,21 L56,48 C56,52.418278 52.418278,56 48,56 L8,56 C3.581722,56 5.41083001e-16,52.418278 0,48 L0,37 L0,37 Z"
              id="path-3"></path>
        <filter x="-6.2%" y="-12.9%" width="112.5%" height="120.0%" filterUnits="objectBoundingBox" id="filter-4">
            <feOffset dx="0" dy="-1" in="SourceAlpha" result="shadowOffsetOuter1"></feOffset>
            <feGaussianBlur stdDeviation="1" in="shadowOffsetOuter1" result="shadowBlurOuter1"></feGaussianBlur>
            <feColorMatrix values="0 0 0 0 0.878388253   0 0 0 0 0.914821093   0 0 0 0 0.95739923  0 0 0 0.296000874 0"
                           type="matrix" in="shadowBlurOuter1"></feColorMatrix>
        </filter>
    </defs>
    <g id="页面-1" stroke="none" stroke-width="1" fill="none" fill-rule="evenodd">
        <g id="战略地图" transform="translate(-244.000000, -658.000000)">
            <g id="编组-6备份" transform="translate(244.000000, 658.000000)">
                <g id="2D">
                    <g id="矩形">
                        <use fill="black" fill-opacity="1" filter="url(#filter-2)" xlink:href="#path-1"></use>
                        <use fill="#FFFFFF" fill-rule="evenodd" xlink:href="#path-1"></use>
                    </g>
                    <path d="M37.4222244,8.00002456 L18.5778272,8.00002456 L18.5778274,8.00002456 C14.9548604,7.99021737 12.0098931,10.9192388 12.0000246,14.5421962 C12.0000246,14.554064 12.0000246,14.565932 12.0000246,14.5777999 L12.0000246,33.4221792 L12.0000246,33.4221475 C11.9902,37.0451111 14.9192105,39.9900756 18.5421713,39.9999754 C18.5540393,39.9999754 18.5659074,39.9999754 18.5777753,39.9999754 L37.4221726,39.9999754 L37.4221726,39.9999754 C41.0451396,40.0097825 43.9901069,37.0807612 43.9999754,33.4578038 C43.9999754,33.445936 43.9999754,33.434068 43.9999754,33.4222001 L43.9999754,14.5778208 L43.9999754,14.5778531 C44.0098001,10.9548896 41.0807895,8.009925 37.4578287,8.00002456 C37.4459714,8.00002456 37.4341141,8.00002456 37.4222568,8.00002456 L37.4222244,8.00002456 Z M25.8311362,32.0888586 L14.826704,32.0888586 L14.826704,29.9021993 C18.7911396,26.3466418 21.4577945,23.4311147 21.4577945,21.119993 L21.4577946,21.1199928 C21.6066851,20.0403724 20.8521792,19.0444676 19.7725579,18.8955772 C19.6476836,18.8783558 19.5214461,18.8731394 19.3955768,18.8799995 L19.3955766,18.8799996 C18.3203271,19.0000206 17.3456025,19.5680736 16.7111372,20.444438 L14.6311408,18.364444 L14.6311408,18.3644447 C15.9371621,16.7701688 17.9040455,15.8654014 19.9644508,15.9111169 L19.9644505,15.9111169 C22.6297242,15.7425606 24.9270106,17.7665487 25.0955418,20.4318292 C25.1055387,20.589904 25.1077629,20.7483757 25.1022062,20.9066661 C25.1022062,23.644434 22.7555449,26.6488766 20.337771,29.1021856 L20.337771,29.1021856 C21.1921519,28.9810452 22.0528702,28.9098137 22.9155448,28.8888528 L25.8311362,28.8888528 L25.8311362,32.0888586 Z M33.5288826,32.0888586 L28.7644473,32.0888586 L28.7644473,16.21335 L33.3333201,16.21335 C38.1866303,16.21335 41.3866288,18.5422311 41.3866288,24.0710888 C41.3866288,29.5999559 38.1688491,32.0888586 33.5288826,32.0888586 L33.5288826,32.0888586 Z M33.084439,19.2533144 L32.5866611,19.2533144 L32.5866611,29.0133005 L33.084439,29.0133005 C35.6444347,29.0133005 37.4577494,27.839971 37.4577494,24.0710888 C37.4577494,20.3022192 35.644419,19.2533144 33.084439,19.2533144 L33.084439,19.2533144 Z"
                          id="形状" fill="#B1B1B1" fill-rule="nonzero"></path>
                    <g id="矩形">
                        <use fill="black" fill-opacity="1" filter="url(#filter-4)" xlink:href="#path-3"></use>
                        <use fill="#FFFFFF" fill-rule="evenodd" xlink:href="#path-3"></use>
                    </g>
                    <text id="二维图" font-family="PingFangSC-Regular, PingFang SC" font-size="11" font-weight="normal"
                          fill="#8C8C8C">
                        <tspan x="13" y="48">二维图</tspan>
                    </text>
                </g>
            </g>
        </g>
    </g>
</svg>